<?xml version="1.0" encoding="utf-8"?>
<!-- Generator: Adobe Illustrator 24.3.0, SVG Export Plug-In . SVG Version: 6.00 Build 0)  -->
<svg version="1.1" id="Layer_1" xmlns="http://www.w3.org/2000/svg" xmlns:xlink="http://www.w3.org/1999/xlink" x="0px" y="0px"
	 viewBox="0 0 376 325" style="enable-background:new 0 0 376 325;" xml:space="preserve">
<path d="M30.9,272.9c0,0,6.9-17.2-14.2-23.3s17.6-2.1,20.6,11.8c2.9,14,5.4-33.5,5.4-33.5l2.9,32.1l7.8-22.2l-2,16.5l6.4-7.1
	l4.9,10.4l15.9,3L74,244.4l5.9,9.9l6.2-32.1v32.5c0,0,3.5-34.8,13.1-29.9c0,0-8.9-2.4-6.1,22.7l3.5-4.1l2.6,18.4
	c0,0,16-17.4,9.6-31.1c0,0,8.4,11.8,1.5,31.1l7.8-10.4l12.2,9.4l9.3-52.4l-1.5,52.1l6.4-31.8v29.2c0,0,10.3-16.5,5.4-38.2
	s8.8,5.8,4.9,30.7l5.9-5.7v15.7c0,0,2.9-38.7,19.6-35.7c0,0-18.6,9.7-4.9,35.1l2.9-19.3l5.2,13.6c0,0,11.5-18.4,10-27.4
	s8.2,12.3,0.1,27.4s11.6-1.9,11.6-1.9l12.8,8.2l5.6-14.3l19.3,9c0,0,16.8-34.4,10.8-50.7c0,0,8.9,21.9,0,51.6l11.2-20.5V251
	c0,0,9.3-28.6,16.2-26.1c0,0-12.2,18.6-4.4,26.6l7.3-12.7v12.7c0,0,18.6-19.3,7.3-41.5c0,0,14.2,14.6,6.4,44.3l15.7-15.6l5.9,14.1
	l10.4-34c0,0-0.6,25.9-0.6,29.2c0,3.3,0.5-10.8,10.8-15.1c0,0-12.7,15.1,0,20.8l12.2-18.2l-2.9,17.2l6.9-6.6v10.4l6.4-17.9l2.7,34.2
	H30.9z"/>
<polygon points="10.4,193 60.4,183 60.4,272.3 84.4,272.3 84.4,183 123.8,183 123.8,272.3 141.7,272.9 141.7,147.3 228.9,74.5 
	306.5,154 306.5,272.9 326.2,272.9 326.2,173.7 340.5,188 365.2,173.7 230.7,47.5 121.3,106.1 "/>
<rect x="192.2" y="183.8" width="53" height="89.1"/>
<circle cx="226.6" cy="137.4" r="19.8"/>
</svg>
