<?xml version="1.0" encoding="utf-8"?>
<!-- Generator: Adobe Illustrator 24.3.0, SVG Export Plug-In . SVG Version: 6.00 Build 0)  -->
<svg version="1.1" id="Layer_1" xmlns="http://www.w3.org/2000/svg" xmlns:xlink="http://www.w3.org/1999/xlink" x="0px" y="0px"
	 viewBox="0 0 498 498" style="enable-background:new 0 0 498 498;" xml:space="preserve">
<path d="M475,270.94c-1-6.06,0-48.94,0-56.94c0-6.57-10.78-9.76-14.64-10.7c-0.76-0.18-1.52-0.32-2.29-0.41l-20.7-2.45
	c-7.21-0.85-13.33-5.65-15.89-12.44l-6.62-17.56c-2.21-5.86-1.45-12.43,2.03-17.64l9.06-13.56c0.61-0.92,1.3-1.79,2.07-2.59
	c12.93-13.34,3.23-22.47-0.05-24.96c-0.75-0.57-1.46-1.18-2.11-1.86C420.01,103.76,393.33,75.89,388,67c-6-10-24,2-24,2
	l-17.71,11.77c-5.47,3.64-12.41,4.26-18.44,1.66l-18.17-7.83c-6.57-2.83-11.06-9.05-11.67-16.18c-0.63-7.3-1.4-16.11-1.84-20.34
	c-0.39-3.77-3.36-6.96-6.36-9.27c-3.4-2.61-7.57-4.01-11.86-4c-14.95,0.04-57.3,0.14-63.4-0.01c-4.71-0.12-7.87,4.42-9.56,7.77
	c-0.91,1.8-1.5,3.74-1.8,5.73l-3.55,23.66c-1.03,6.84-5.61,12.61-12.03,15.17l-17.23,6.85c-6.47,2.57-13.81,1.49-19.26-2.84
	l-11.72-9.31c-1.03-0.82-2-1.73-2.82-2.76c-1.47-1.85-6.76-5.26-24.59,0.94c-23,8-37,32-46,45c-7.39,10.68-3.99,15.96-2.54,17.5
	c0.49,0.52,0.97,1.04,1.41,1.61l14.06,17.9c4.4,5.6,5.38,13.15,2.57,19.68L74,189.11c-2.7,6.27-8.49,10.66-15.26,11.57
	c-7.58,1.02-17.24,2.1-22.74,1.83c-5.79-0.28-9.24,4.22-11.11,8.05c-1.27,2.6-1.89,5.47-1.89,8.37v61.75c0,1.84-0.28,3.66-0.78,5.43
	C18.4,299.7,41.8,303.54,56.9,304.6c7.5,0.53,14.02,5.33,16.74,12.34l5.76,14.8c2.26,5.81,1.59,12.36-1.8,17.6L67.6,364.79
	c-4.88,7.54-3.96,17.45,2.25,23.96l39.99,41.95c6.6,6.92,17.26,8.01,25.12,2.56l16.24-11.25c5.45-3.78,12.45-4.51,18.56-1.95
	l16.51,6.91c5.69,2.38,9.91,7.33,11.37,13.33l5.32,21.87c2.12,8.7,9.92,14.83,18.87,14.83h54.82c9.44,0,17.52-6.79,19.14-16.1
	l3.39-19.5c1.13-6.49,5.47-11.96,11.53-14.54l17.46-7.43c5.86-2.49,12.56-1.96,17.95,1.43l14.97,9.41c1.52,0.96,2.93,2.11,4.11,3.46
	c8.84,10.17,19.05,0.13,20.6-1.51c0.16-0.17,0.31-0.33,0.48-0.49l41.52-40.56c0.87-0.85,1.67-1.78,2.36-2.78
	c8.97-12.94,4.47-19.56,3.16-21.06c-0.27-0.31-0.54-0.62-0.79-0.95l-11.97-15.75c-4.08-5.37-5.08-12.47-2.65-18.75l7.64-19.78
	c2.67-6.92,9.05-11.7,16.43-12.35c4.7-0.42,10.51-0.75,17.02-0.75C476,299,476,277,475,270.94z M462,279.13
	c0,4.87-3.33,9.1-8.06,10.24c-6.49,1.57-15.56,2.95-21.94,0.63c-8.6-3.13-12.95,2.46-14.44,5.04c-0.35,0.6-0.61,1.24-0.83,1.9
	c-1.23,3.81-7.37,22.54-12.73,35.07c-6,14-0.91,19.58-0.91,19.58l15.3,17.75c3.69,4.29,3.34,10.72-0.8,14.58l-36.75,34.27
	c-3.46,3.22-8.64,3.75-12.67,1.29c-6.77-4.14-16.76-10.32-21.17-13.47c-7-5-16,0-16,0s-20,10-30,12s-10,8-10,8l-3.14,29.56
	c-0.57,5.36-5.09,9.42-10.47,9.42h-54.37c-5.03,0-9.35-3.55-10.33-8.48c-1.16-5.84-2.35-13.37-1.96-18.07
	c0.47-5.61-2.75-12.41-5.03-16.44c-1.24-2.19-3.23-3.85-5.6-4.7c-6.62-2.37-21.29-7.76-31.09-12.28
	c-10.69-4.94-17.33,0.95-19.34,3.2c-0.54,0.6-1.14,1.14-1.8,1.6l-18.61,13.1c-4.19,2.95-9.89,2.46-13.51-1.17l-37.58-37.58
	c-3.57-3.57-4.11-9.18-1.27-13.36l13.1-19.3c0.6-0.89,1.36-1.67,2.19-2.35c7.02-5.74,3.02-15.57,2.03-17.72
	c-0.15-0.32-0.28-0.63-0.39-0.96c-1.23-3.48-8.22-23.07-12.31-29.17C77,294.6,67,293,67,293l-22.38-4.13
	c-5-0.92-8.62-5.28-8.62-10.36v-54.27c0-5.29,3.92-9.76,9.17-10.44l26.6-3.48c8.94-0.57,11.13-7.97,11.62-10.46
	c0.13-0.65,0.31-1.28,0.56-1.89L96,168c4-8-1.26-15.22-1.26-15.22l-16.22-21.82c-2.34-3.15-2.75-7.35-1.04-10.87
	c13.56-27.79,34.07-38.03,43.89-41.49c3.35-1.18,7.07-0.55,9.87,1.62c4.94,3.82,12.96,10.29,17.26,15.2
	c5.74,6.54,14.94,2.01,17.05,0.84c0.34-0.19,0.68-0.36,1.03-0.51c3.5-1.48,21.6-9.05,32.41-11.75
	c10.88-2.72,11.66-11.38,11.72-12.98c0.01-0.25,0.03-0.51,0.06-0.76l2.75-24.84c0.59-5.34,5.1-9.37,10.47-9.37h52.49
	c5.73,0,10.42,4.59,10.53,10.32c0.1,5.19,0.26,11.82,0.5,18.68c0.45,13.19,8.94,17.06,11.02,17.81c0.36,0.13,0.7,0.27,1.04,0.43
	C303.4,85.1,324.9,95.27,334,98c10,3,12,0,12,0l24.06-18.05c4.46-3.34,10.75-2.64,14.36,1.62l32.64,38.52
	c3,3.54,3.33,8.62,0.82,12.52c-4.3,6.67-10.81,16.5-14.19,20.18C398.36,158.57,402,167,402,167s13,31,14,37
	c0.88,5.25,10.33,6.15,12.69,6.29c0.38,0.02,0.75,0.06,1.12,0.12l23.39,3.9c5.08,0.85,8.8,5.24,8.8,10.39V279.13z"/>
<path d="M436.87,214.07l-30.1-2.43c-2.43-0.2-4.54-1.76-5.43-4.04l-12.84-32.85c-0.76-1.95-0.52-4.16,0.66-5.9l16.79-24.84
	c1.64-2.43,1.42-5.66-0.54-7.84l-37.43-41.59c-2.2-2.44-5.89-2.82-8.54-0.86L333,113.26c-1.84,1.36-4.26,1.63-6.35,0.71
	l-32.53-14.24c-2.12-0.93-3.57-2.93-3.79-5.24l-2.81-29.44c-0.31-3.27-3.06-5.78-6.35-5.78h-59.35c-3.27,0-6.01,2.46-6.35,5.72
	c-1.13,10.82-3.64,33.24-5.14,33.24c-1.6,0-25.92,10.38-35.16,14.35c-2.17,0.93-4.68,0.59-6.52-0.9l-20.13-16.26
	c-1.69-1.37-3.97-1.79-6.03-1.09c-33.04,11.18-44.86,36.79-48.15,46.08c-0.73,2.07-0.36,4.36,1,6.08l17.48,22.25
	c1.41,1.79,1.75,4.2,0.91,6.31l-13.04,32.59c-0.9,2.25-3,3.8-5.41,3.99l-30.14,2.44c-3.31,0.27-5.87,3.04-5.87,6.36v61.61
	c0,3.14,2.28,5.81,5.38,6.3l30.05,4.75c2.19,0.35,4.04,1.8,4.89,3.85l12.16,29.19c0.84,2.01,0.59,4.31-0.66,6.1l-17.82,25.57
	c-1.74,2.5-1.48,5.88,0.63,8.07l41.05,42.73c2.24,2.33,5.88,2.62,8.46,0.67l25.34-19.2c1.78-1.35,4.15-1.67,6.22-0.84l32.77,13.11
	c2.19,0.88,3.72,2.89,3.97,5.24l3.19,29.45c0.35,3.24,3.09,5.69,6.34,5.69h60.05c3.23,0,5.95-2.41,6.34-5.62l3.58-29.66
	c0.27-2.27,1.75-4.23,3.86-5.12l31.07-13.08c2-0.84,4.3-0.61,6.09,0.62l24.54,16.87c2.52,1.73,5.9,1.44,8.08-0.7l41.73-40.9
	c2.34-2.29,2.56-5.99,0.52-8.54l-17.9-22.38c-1.42-1.78-1.79-4.18-0.96-6.31l13.12-33.62c0.87-2.22,2.9-3.78,5.28-4.03l30.37-3.19
	c3.25-0.34,5.71-3.08,5.71-6.35v-60.3C442.73,217.11,440.18,214.34,436.87,214.07z M247.03,381.95
	c-70.68,0-127.98-57.3-127.98-127.98S176.35,126,247.03,126s127.98,57.3,127.98,127.98S317.71,381.95,247.03,381.95z"/>
<g>
	<g>
		<path d="M272.4,189.64l-15.01-2.06l-5.63-11.79c0,0-3.16-4.21-6.85,0l-5.79,11.79l-13.48,2.11c0,0-4.21,2.11-1.26,6.32l8.85,9.27
			l-2,12.55c0,0,1.16,5.99,5.79,3.88c4.63-2.11,11.79-5.6,11.79-5.6l9.69,5.18c0,0,7.16,3.37,6.74-4.63l-1.18-11.78l8.34-8.02
			C272.4,196.84,275.35,194.64,272.4,189.64z M254.71,202.32l0.82,8c0,0-5.03-3.79-6.71-3.48c-1.68,0.31-7.58,3.48-7.58,3.48
			l0.42-7.16l-5.48-7.16l8.85-1.26l3.79-6.96l2.95,7.38l8.85,1.26L254.71,202.32z"/>
		<path d="M231.97,296.9l0-17.09c0-1.77,0.09-3.54,0.15-5.32c0.04-1.34-0.68-4.6-6.46-10.68c-5.29-5.57-11.06-10.56-17.37-20.84
			c-7.56-12.33-12.1-26.27-13.51-40.67c-0.98-10.02-1.6-24.05-0.75-42.55c0.02-0.37,0.03-0.75,0.04-1.13
			c0.03-1.21,0.55-5.59,6.34-5.59l91.69,0c1.7,0,3.39-0.11,5.08-0.23c1.97-0.15,5.62,0.52,6.31,7.27c0.04,0.44,0.08,0.9,0.1,1.39
			c0.42,10.95,0,39.9,0,39.9s0,27.92-22.32,52.77l-5.1,5.68c-2.01,2.24-4.14,4.35-6.27,6.49c-1.58,1.59-4.22,6.28-4.22,19.84
			l-0.07,10.79c-0.02,2.42-1.98,4.37-4.4,4.37h-0.29c-2.42,0-4.39-1.96-4.4-4.38l-0.11-22.16c0,0-0.42-9.69,8-15.16
			c8.42-5.48,19.58-19.74,26.01-37.46c5.19-14.31,5.09-45.36,4.86-56.77c-0.05-2.4-2.02-4.32-4.42-4.31l-84.48,0.39
			c-1.97,0.01-3.61,1.53-3.74,3.5c-0.89,12.61-2.64,56.16,13.54,75.36c2.07,2.45,3.99,5.03,5.86,7.64
			c2.71,3.78,7.07,9.05,12.58,12.92c7.52,5.29,6.82,27.17,6.16,36.35c-0.16,2.3-2.08,4.08-4.39,4.08h0
			C233.94,301.3,231.97,299.33,231.97,296.9z"/>
		<path d="M303.57,161.46l0.19,7.64l16.65,0c0,0,8.85-1.32,8.85,7.11c0,8.42,1.03,46.38-37.18,62.99l-8.9,12.71
			c0,0,39.95-6.84,52.07-52.85c0,0,2.5-13.11,2.26-25.14c-0.24-12.03-12.9-12.45-12.9-12.45L303.57,161.46z"/>
		<path d="M193.95,161.46l-0.07,1.75l-0.26,6.53l-20,0c0,0-6.09-1.54-5.25,7.3c0.84,8.85-2.37,46.14,37.77,62.24l8.43,12.61
			c0,0-50.41-9.15-54.63-69.38v-9.88c0,0,1.13-10.34,11.09-11.18C181,160.62,193.95,161.46,193.95,161.46z"/>
		<path d="M210.91,338.37l8.52,0l-0.1-28.22c0,0,0.43-5.63,4.01-5.76s50.38,0,50.38,0s4.59-0.98,4.59,8.71c0,9.69,0,25.27,0,25.27
			h8.56l-0.13-29.91c0,0-0.33-12.21-13.01-12.21c-12.68,0-50.38,0-50.38,0s-12.01-0.47-12.43,15.56S210.91,338.37,210.91,338.37z"/>
		<path d="M267.03,323.62l-18.31,0c-1.57,0-2.85-1.28-2.85-2.85v-2.72c0-1.57,1.28-2.85,2.85-2.85l18.31,0
			c1.57,0,2.85,1.28,2.85,2.85v2.72C269.87,322.34,268.59,323.62,267.03,323.62z"/>
		<circle cx="232.39" cy="319.41" r="4.63"/>
		<path d="M304.6,348.92c0,0-1.03-10.98-12.82-11.82s-85.81,0-85.81,0s-10.65,1.39-10.65,13.54c0,6.21,0,8.47,0,9.2
			c0,0,0,2.95,5.05,2.95s98.51,0,98.51,0s5.48,0.4,5.72-5.48C304.83,351.42,304.6,348.92,304.6,348.92z M296.09,353.95l-92.34,0
			c-1.26-7.16,3.94-8.42,3.94-8.42s77.77-0.84,83.67,0C297.25,346.37,296.09,353.95,296.09,353.95z"/>
	</g>
</g>
</svg>
