<?xml version="1.0" encoding="utf-8"?>
<!-- Generator: Adobe Illustrator 24.3.0, SVG Export Plug-In . SVG Version: 6.00 Build 0)  -->
<svg version="1.1" id="Layer_1" xmlns="http://www.w3.org/2000/svg" xmlns:xlink="http://www.w3.org/1999/xlink" x="0px" y="0px"
	 viewBox="0 0 686 520" style="enable-background:new 0 0 686 520;" xml:space="preserve">
<g>
	<path d="M658.87,99.96c-15.32-11.49-17.62,0-17.62,0l-81.19,91.91l-17.62-15.32c0,0-9.22-7.38-23.26,2.65
		c-2.62,1.87-4.96,4.1-7.07,6.53L393.6,322.17c1.93,3.14,4.17,8.72,4.32,17.78c0.27,16.04,0,52.48,0,52.48s4.62-0.06,10.5,0.9
		c-0.27-0.1-0.42-0.15-0.42-0.15l0.03-48.18l121.16-140l45,39L432.09,408.07c0.63,1.76,0.99,3.71,1,5.89
		c0.09,22.04,6.13,30.08-10.89,30.56c-13.77,0.39-53.07,0.15-67.56,0.04c13.88,12.12,26.95,23.05,26.95,23.05
		s22.21,16.85,41.36-11.49c19.15-28.34,168.89-193.02,168.89-193.02s24.13-20.68,7.28-38.3c-11.97-12.51-15.82-13.43-17.05-12.91
		l76.79-88.96C658.87,122.94,674.18,111.45,658.87,99.96z"/>
	<g>
		<path d="M372.1,98.52l-29.99-4.12l-11.25-23.57c0,0-6.32-8.42-13.68,0L305.61,94.4l-26.93,4.21c0,0-8.42,4.21-2.52,12.62
			l17.67,18.52l-3.99,25.07c0,0,2.31,11.96,11.57,7.75s23.57-11.19,23.57-11.19l19.36,10.35c0,0,14.31,6.73,13.47-9.26l-2.36-23.54
			l16.67-16.02C372.1,112.92,377.99,108.53,372.1,98.52z M336.75,123.86l1.63,15.99c0,0-10.05-7.57-13.41-6.95
			c-3.37,0.63-15.15,6.95-15.15,6.95l0.84-14.31l-10.94-14.31l17.67-2.52l7.57-13.91l5.89,14.76l17.67,2.52L336.75,123.86z"/>
		<path d="M291.3,312.85V278.7c0-3.54,0.18-7.08,0.29-10.62c0.08-2.68-1.37-9.18-12.92-21.34c-10.57-11.12-22.1-21.09-34.7-41.64
			c-15.11-24.64-24.17-52.5-26.99-81.27c-1.97-20.02-3.19-48.05-1.5-85.02c0.03-0.75,0.05-1.51,0.07-2.25
			c0.06-2.43,1.1-11.16,12.66-11.16h183.21c3.39,0,6.77-0.22,10.15-0.47c3.94-0.3,11.23,1.05,12.62,14.53
			c0.09,0.87,0.15,1.8,0.19,2.77c0.84,21.88,0,79.72,0,79.72s0,55.78-44.61,105.44l-10.18,11.36c-4.01,4.47-8.28,8.7-12.52,12.96
			c-3.16,3.18-8.44,12.55-8.44,39.65l-0.14,21.56c-0.03,4.83-3.96,8.73-8.79,8.73h-0.57c-4.84,0-8.77-3.91-8.79-8.75l-0.22-44.28
			c0,0-0.84-19.36,15.99-30.3c16.83-10.94,39.13-39.45,51.97-74.85c10.37-28.59,10.17-90.63,9.71-113.44
			c-0.1-4.8-4.03-8.63-8.83-8.61l-168.81,0.77c-3.94,0.02-7.2,3.06-7.48,6.99c-1.78,25.2-5.28,112.21,27.05,150.59
			c4.13,4.9,7.97,10.05,11.71,15.26c5.41,7.55,14.12,18.07,25.14,25.82c15.03,10.57,13.62,54.29,12.31,72.64
			c-0.33,4.6-4.16,8.16-8.77,8.16h0C295.24,321.64,291.3,317.71,291.3,312.85z"/>
		<path d="M434.38,42.22l0.37,15.26h33.27c0,0,17.69-2.63,17.69,14.2s2.06,92.67-74.3,125.87l-17.79,25.39
			c0,0,79.82-13.68,104.05-105.61c0,0,5-26.19,4.51-50.23s-25.79-24.87-25.79-24.87H434.38z"/>
		<path d="M215.33,42.22l-0.14,3.5l-0.51,13.05h-39.97c0,0-12.18-3.08-10.49,14.59c1.68,17.67-4.74,92.19,75.48,124.37l16.84,25.2
			c0,0-100.73-18.28-109.15-138.63V64.57c0,0,2.26-20.66,22.17-22.35C189.47,40.54,215.33,42.22,215.33,42.22z"/>
		<path d="M249.22,395.71h17.03l-0.2-56.39c0,0,0.86-11.25,8.01-11.51c7.14-0.27,100.66,0,100.66,0s9.16-1.95,9.16,17.41
			s0,50.5,0,50.5h17.1l-0.27-59.76c0,0-0.65-24.41-26-24.41s-100.66,0-100.66,0s-24-0.95-24.84,31.09S249.22,395.71,249.22,395.71z"
			/>
		<path d="M358.63,366.25h-31.14c-4.63,0-8.42-3.79-8.42-8.42l0,0c0-4.63,3.79-8.42,8.42-8.42h31.14c4.63,0,8.42,3.79,8.42,8.42l0,0
			C367.05,362.46,363.26,366.25,358.63,366.25z"/>
		<circle cx="292.15" cy="357.83" r="9.26"/>
		<path d="M436.44,416.8c0,0-2.06-21.94-25.62-23.62c-23.57-1.68-171.46,0-171.46,0s-21.27,2.78-21.27,27.06c0,12.4,0,16.93,0,18.39
			c0,0,0,5.89,10.1,5.89c10.1,0,196.83,0,196.83,0s10.96,0.81,11.42-10.96C436.91,421.8,436.44,416.8,436.44,416.8z M419.43,426.85
			H234.91c-2.52-14.31,7.88-16.83,7.88-16.83s155.4-1.68,167.18,0S419.43,426.85,419.43,426.85z"/>
	</g>
	<path d="M121.06,265.23C65.25,265.23,20,311.07,20,367.62S65.25,470,121.06,470c55.82,0,101.06-45.84,101.06-102.38
		S176.88,265.23,121.06,265.23z M162,287l-10,5l-37-6l-8-8C145,273,162,287,162,287z M114.81,292l37.19,5l3,33l-15,15l-32.1-5.81
		L101,319L114.81,292z M96.17,321.64L103,342l-15,29l-19,1l-22-22l18.02-31.5L96.17,321.64z M59,302l2,14l-17,31l-11,6
		C33,353,35,324,59,302z M41,407h12.53L80,435l1,13C81,448,52,432,41,407z M111,417l-29,15l-25-27l14-28l18-2l23,24L111,417z
		 M116.09,418.48L117,400l30-15l19.38,7.43l3.62,31.78L137,441L116.09,418.48z M134.5,456.89l4.82-12.36
		C150.64,442.06,174,428,174,428l12,2C169,454,134.5,456.89,134.5,456.89z M167,388l-18-7l-5-32l16-16l31,4l5,37L167,388z
		 M202,374.17l-6-38.3l6-9.87c15,23,9,57,9,57L202,374.17z"/>
</g>
<path d="M607.83,360.5c-1.5-12.8-9.94-14.83-14.99-14.86c-3.16-0.02-6.31-0.11-9.46-0.4c-12.66-1.16-44.5-0.93-73.21,24.85
	C473.32,403.17,479,453,479,453c2.25,18,10.4,20.02,14.33,19.9c2.15-0.06,4.3-0.12,6.45-0.04c12.86,0.5,51.83-0.3,78.22-25.86
	C610,416,610,379,607.83,360.5z M521.19,463.38L505,465c0,0-14,1-17-7c-2.36-6.29,0.23-21.85,1.44-28.22
	c0.29-1.53,1.92-2.41,3.36-1.8c13.31,5.63,25.6,24.07,30.24,31.68C523.99,461.21,522.99,463.2,521.19,463.38z M567.41,413.26
	l-2.78,2.78c-0.98,0.98-2.57,0.97-3.53-0.02l-5.99-6.13l-5.64,5.64l5.96,6.1c0.98,1.01,0.97,2.64-0.02,3.64l-2.78,2.78
	c-0.98,0.98-2.57,0.97-3.53-0.02l-5.99-6.13l-5.14,5.14l5.46,5.59c0.98,1.01,0.97,2.64-0.02,3.64l-2.78,2.78
	c-0.98,0.98-2.57,0.97-3.53-0.02l-5.55-5.68c-2.21,1.31-6.68-0.91-8.52-2.77l0,0c-1.75-1.77-1.92-4.53-0.54-6.5l-6.3-6.45
	c-0.98-1.01-0.97-2.65,0.02-3.64l2.78-2.78c0.98-0.98,2.57-0.97,3.53,0.02l6.31,6.46l5.17-5.11l-5.82-5.95
	c-0.98-1.01-0.97-2.64,0.02-3.64l2.78-2.78c0.98-0.98,2.57-0.97,3.53,0.02l5.89,6.03l5.67-5.6l-5.89-6.03
	c-0.98-1.01-0.97-2.64,0.02-3.64l2.78-2.78c0.98-0.98,2.57-0.97,3.53,0.02l5.96,6.1l4.24-4.19c1.35-1.34,3.71-1.5,5.23-0.35
	l1.35,1.02c1.97,1.99,3.68,7.24,1.68,9.2l-3.52,3.52l5.96,6.1C568.42,410.63,568.41,412.26,567.41,413.26z M599,362l-1.46,20.38
	c-0.33,4.68-5.61,7.23-9.5,4.59c-6.73-4.56-14.18-13.23-19.38-19.9c-3-3.85-0.48-9.49,4.39-9.81l18.67-1.24
	c0.18-0.01,0.37-0.01,0.55-0.02C599.98,356.14,599,362,599,362z"/>
</svg>
