<?xml version="1.0" encoding="utf-8"?>
<!-- Generator: Adobe Illustrator 24.3.0, SVG Export Plug-In . SVG Version: 6.00 Build 0)  -->
<svg version="1.1" id="Layer_1" xmlns="http://www.w3.org/2000/svg" xmlns:xlink="http://www.w3.org/1999/xlink" x="0px" y="0px"
	 viewBox="0 0 376 279.6" style="enable-background:new 0 0 376 279.6;" xml:space="preserve">
<g>
	<rect x="66.7" y="191.8" width="247.7" height="12.2"/>
	<rect x="93.8" y="148.1" width="19.9" height="35.9"/>
	<rect x="137.5" y="138" width="21.3" height="46.1"/>
	<rect x="182.1" y="116.6" width="22.3" height="67.4"/>
	<rect x="227.6" y="87.1" width="24.2" height="97"/>
	<rect x="273.2" y="33.7" width="25.2" height="150.3"/>
</g>
<path d="M97.3,104.8v23.7l32.9-45.3l29.5,27.2c1.4,1.3,3.1,2.2,4.9,2.4c1.6,0.2,3.5,0,5-1.5c3.3-3.3,50.7-71.6,50.7-71.6l1.6,22.2
	c0,0,0.7,10.5,8.1,9.4c6-0.9,6.1-8.6,5.9-11.5c-0.1-1.5-0.2-2.9-0.2-4.4l-1.5-33.8c0,0,0.5-3.8-3.6-6.1c-1.7-1-3.7-1.3-5.7-1.1
	l-34.4,2.8c-1.9,0.2-3.8,0.2-5.8,0.3c-1.8,0.1-5.2,1.1-6.9,7.5c-2.5,9.1,31.5,5.1,31.5,5.1l-45.4,64L136.2,67c0,0-6.5-7.4-12.3,0.8
	L97.3,104.8z"/>
<path d="M331.6,15.2v209.4c0,5.9-4.8,10.7-10.7,10.7H57.2c-5.9,0-10.7-4.8-10.7-10.7v-32.6H19.8l-0.2,60c0,5.9,4.8,10.7,10.7,10.7
	h320.5c5.9,0,10.7-4.8,10.7-10.7L361.2,15L331.6,15.2z"/>
</svg>
