<?xml version="1.0" encoding="utf-8"?>
<!-- Generator: Adobe Illustrator 24.3.0, SVG Export Plug-In . SVG Version: 6.00 Build 0)  -->
<svg version="1.1" id="Layer_1" xmlns="http://www.w3.org/2000/svg" xmlns:xlink="http://www.w3.org/1999/xlink" x="0px" y="0px"
	 viewBox="0 0 474 478" style="enable-background:new 0 0 474 478;" xml:space="preserve">
<path d="M19.01,154.09v253.22c0,0-8.47,46.57,43.75,47.98c52.21,1.41,342.34,0,342.34,0s45.73,5.64,47.14-49.39
	c1.41-55.03,0-196.75,0-196.75s-2.82-28.43-29.63-24.5v12.4c0,0,12.7-2.82,14.11,21.17v186.27c0,0,1.41,23.99-29.63,33.87H68.4
	c0,0-29.63-1.41-31.05-25.4c-1.41-23.99-1.2-214.49-1.2-214.49l0.72-44.37H19.01z"/>
<path d="M380.5,237.97H268.55c-11.51,0-20.93,9.42-20.93,20.93v48.45c0,11.51,9.42,20.93,20.93,20.93H380.5
	c11.51,0,20.93-9.42,20.93-20.93v-48.45C401.43,247.39,392.01,237.97,380.5,237.97z M296.3,309.94c-15.2,0-27.52-12.32-27.52-27.52
	c0-15.2,12.32-27.52,27.52-27.52s27.52,12.32,27.52,27.52C323.82,297.62,311.5,309.94,296.3,309.94z"/>
<path d="M204.57,394.61H80.4c-6.6,0-12-5.4-12-12v-9.87c0-6.6,5.4-12,12-12h124.17c6.6,0,12,5.4,12,12v9.87
	C216.57,389.21,211.17,394.61,204.57,394.61z"/>
<path d="M376.27,197.05c0,0,11.05-1.41,11.05,15.52s-5.52,187.68-5.52,187.68s2.7,32.22-12.11,35.16s-12.86,20.08-12.86,20.08
	l38.92-0.16c0,0,52.26-13.43,50.85-64.6s0-167.9,0-167.9s4.72-33.45-44.91-33.15C352.04,190,376.27,197.05,376.27,197.05z"/>
<path d="M384.5,110.97c-13.98-1.17-70.87-1.37-132.86-1.21c1.25,13.23,1.18,26.56-1.95,36.48h-145.3l25.4-2.82
	c0,0,35.2-12.6,66.53-33.44c-69.53,0.37-131.34,0.98-131.34,0.98s-45.97-2.82-45.97,47.98c0,39.01,45.16,39.51,61.46,39.2
	c9.7-0.19,19.37-1.1,29.06-1.1H422.6v-48.43C422.6,148.62,418.37,113.79,384.5,110.97z"/>
<path d="M241.97,60.17c0,0,7.57,26,9.81,51.85l18.41,0.36c0,0-4.23-63.5-19.55-84.11c-8.2-11.04-14.56-9.2-18.7-5.11
	c-3.58,3.54-5.2,8.59-4.91,13.62c2.49,42.67-68.15,73.43-68.15,73.43l31.08,0.61c3.96,0.08,7.85-1.09,11.09-3.36
	C219.75,94.32,236.29,78.24,241.97,60.17z"/>
</svg>
