<?xml version="1.0" encoding="utf-8"?>
<!-- Generator: Adobe Illustrator 24.3.0, SVG Export Plug-In . SVG Version: 6.00 Build 0)  -->
<svg version="1.1" id="Layer_1" xmlns="http://www.w3.org/2000/svg" xmlns:xlink="http://www.w3.org/1999/xlink" x="0px" y="0px"
	 viewBox="0 0 376 325" style="enable-background:new 0 0 376 325;" xml:space="preserve">
<path d="M284.6,108.3h-34.3H78.9c-3.1,0-6.3-0.2-9.3-0.9c-29-6-27.3-34.6-27.3-34.6l-13.4-2.6c0,0-3.8,140.7,0,184.8
	s42.8,44.1,42.8,44.1h235.3c20.7,0,30.3-14.4,34.7-26.4c2.5-6.8,3.6-14,3.6-21.2v-101C345.2,99.9,284.6,108.3,284.6,108.3z
	 M311.7,247.2h-79.6c-11.4,0-21.5-7.2-25-18c-3-9.1-5.1-20.8-3.2-33.2c2.4-15.3,15.6-26.6,31.1-26.6h76.6V247.2z"/>
<circle cx="237.4" cy="210.4" r="15.8"/>
<path d="M332.8,108.3V70.2c0,0,1-28.9-33.6-32.3l-211,0.4c0,0-40.2-3.3-45.1,31.9s35.7,38.1,35.7,38.1h-51c0,0-0.1-45.1,5.6-56.6
	s24-27.8,57.5-26.9s195,0,195,0s28.9-2,46.7,12.6c22.1,18.1,12.5,70.9,12.5,70.9H332.8z"/>
<rect x="74.8" y="59.4" width="231.1" height="10.5"/>
<rect x="74.8" y="79.5" width="165.9" height="16.3"/>
<rect x="278.1" y="186.8" width="18.2" height="44.6"/>
</svg>
